<svg width="14" height="13" viewBox="0 0 14 13" fill="none" xmlns="http://www.w3.org/2000/svg">
<path fill-rule="evenodd" clip-rule="evenodd" d="M3.46447 0.84266C2.87868 0.256874 1.92893 0.256874 1.34315 0.84266C0.757362 1.42845 0.757362 2.37819 1.34315 2.96398L4.87868 6.49951L1.34315 10.035C0.757362 10.6208 0.757362 11.5706 1.34315 12.1564C1.92893 12.7422 2.87868 12.7422 3.46447 12.1564L7 8.62083L10.5355 12.1564C11.1213 12.7422 12.0711 12.7422 12.6569 12.1564C13.2426 11.5706 13.2426 10.6208 12.6569 10.035L9.12132 6.49951L12.6569 2.96398C13.2426 2.37819 13.2426 1.42845 12.6569 0.842661C12.0711 0.256874 11.1213 0.256874 10.5355 0.842661L7 4.37819L3.46447 0.84266Z" fill="#333D4B"/>
</svg>
